<svg xmlns="http://www.w3.org/2000/svg" width="54.263" height="56" viewBox="0 0 54.263 56">
  <g id="icon2" transform="translate(-1384.737 -3946)">
    <circle id="Ellipse_22" data-name="Ellipse 22" cx="11.5" cy="11.5" r="11.5" transform="translate(1416 3946)" fill="#35a1ff"/>
    <circle id="Ellipse_21" data-name="Ellipse 21" cx="26.5" cy="26.5" r="26.5" transform="translate(1384.737 3949)" fill="#1f3bb3"/>
    <path id="Path_16481" data-name="Path 16481" d="M547.888,390.266c2.078,2.276,4.484,4.452,5.435,3.41,1.363-1.492,2.2-2.791,5.205-.148s.7,4.4-.623,5.851c-1.523,1.667-7.2.087-12.808-6.056s-7.053-12.36-5.529-14.029c1.32-1.445,2.928-3.97,5.341-.681s1.227,4.207-.135,5.7C543.823,385.354,545.809,387.989,547.888,390.266Z" transform="translate(861.737 3588)" fill="#fff"/>
  </g>
</svg>
