<svg width="807" height="298" viewBox="0 0 807 298" fill="none" xmlns="http://www.w3.org/2000/svg">
<path d="M103.803 86.748C84.125 86.748 69.0176 96.6504 61.6543 112.646H60.8926V88.9062H24.3301V269.434H61.4004V202.148H62.1621C69.3984 217.51 84.6328 227.158 104.438 227.158C138.461 227.158 159.535 200.752 159.535 156.953C159.535 113.027 138.334 86.748 103.803 86.748ZM91.3613 197.324C73.207 197.324 61.2734 181.582 61.2734 156.953C61.2734 132.578 73.207 116.455 91.3613 116.455C109.896 116.455 121.576 132.324 121.576 156.953C121.576 181.709 109.896 197.324 91.3613 197.324ZM269.842 183.359C266.414 193.77 256.004 200.498 242.42 200.498C223.504 200.498 211.189 187.168 211.189 167.744V165.459H305.008V154.16C305.008 112.773 279.998 85.9863 240.389 85.9863C200.145 85.9863 174.754 114.17 174.754 157.588C174.754 201.133 199.891 227.92 241.785 227.92C275.428 227.92 299.803 210.02 303.865 183.359H269.842ZM240.77 113.408C257.273 113.408 268.572 125.342 269.334 142.734H211.57C212.84 125.723 224.52 113.408 240.77 113.408ZM371.516 194.531C394.24 194.531 412.902 175.742 412.902 153.145C412.902 130.42 394.24 111.758 371.516 111.758C348.918 111.758 330.129 130.42 330.129 153.145C330.129 175.742 348.918 194.531 371.516 194.531ZM522.447 86.748C502.77 86.748 487.662 96.6504 480.299 112.646H479.537V88.9062H442.975V269.434H480.045V202.148H480.807C488.043 217.51 503.277 227.158 523.082 227.158C557.105 227.158 578.18 200.752 578.18 156.953C578.18 113.027 556.979 86.748 522.447 86.748ZM510.006 197.324C491.852 197.324 479.918 181.582 479.918 156.953C479.918 132.578 491.852 116.455 510.006 116.455C528.541 116.455 540.221 132.324 540.221 156.953C540.221 181.709 528.541 197.324 510.006 197.324ZM599.238 225H636.309V41.8066H599.238V225ZM752.455 183.359C749.027 193.77 738.617 200.498 725.033 200.498C706.117 200.498 693.803 187.168 693.803 167.744V165.459H787.621V154.16C787.621 112.773 762.611 85.9863 723.002 85.9863C682.758 85.9863 657.367 114.17 657.367 157.588C657.367 201.133 682.504 227.92 724.398 227.92C758.041 227.92 782.416 210.02 786.479 183.359H752.455ZM723.383 113.408C739.887 113.408 751.186 125.342 751.947 142.734H694.184C695.453 125.723 707.133 113.408 723.383 113.408Z" fill="white"/>
</svg>
