<svg xmlns="http://www.w3.org/2000/svg" width="21.003" height="14.877" viewBox="0 0 21.003 14.877">
  <g id="folder" transform="translate(0 -74.667)">
    <path id="Path_372" data-name="Path 372" d="M57.982,74.667H44.855a2.188,2.188,0,0,0-2.188,2.188v.875a.438.438,0,0,0,.438.438H46.85a.444.444,0,0,1,.416.294l.477,1.443a1.322,1.322,0,0,0,1.243.888H59.732a.438.438,0,0,0,.438-.438v-3.5A2.188,2.188,0,0,0,57.982,74.667Z" transform="translate(-40.917)" fill="#ffd1c8"/>
    <path id="Path_373" data-name="Path 373" d="M19.691,141.292H8.069A.45.45,0,0,1,7.653,141l-.477-1.443a1.323,1.323,0,0,0-1.243-.888H1.313A1.313,1.313,0,0,0,0,139.98a12.406,12.406,0,0,0,.517,3.557l1.75,5.821a2.188,2.188,0,0,0,2.1,1.561H16.724A2.188,2.188,0,0,0,18.78,149.5l1.89-5.043A5.306,5.306,0,0,0,21,142.605,1.313,1.313,0,0,0,19.691,141.292Z" transform="translate(0 -61.375)" fill="#1f3bb3"/>
  </g>
</svg>
