<svg xmlns="http://www.w3.org/2000/svg" width="39.787" height="56.17" viewBox="0 0 39.787 56.17">
  <g id="folder_1_" data-name="folder (1)" transform="translate(0 0)">
    <path id="Path_379" data-name="Path 379" d="M223.866,42.667h-2.34a1.17,1.17,0,0,0-1.17,1.17V53.854a1.2,1.2,0,0,1-.786,1.112l-3.859,1.275a3.536,3.536,0,0,0-2.376,3.323V88.305a1.17,1.17,0,0,0,1.17,1.17h9.362a5.851,5.851,0,0,0,5.851-5.851V48.518A5.851,5.851,0,0,0,223.866,42.667Z" transform="translate(-189.93 -37.986)" fill="#cfd8dc"/>
    <path id="Path_381" data-name="Path 381" d="M29.255,0a33.177,33.177,0,0,0-9.512,1.383L4.175,6.064A5.851,5.851,0,0,0,0,11.679V44.726a5.851,5.851,0,0,0,3.8,5.5l13.486,5.055a14.191,14.191,0,0,0,4.945.892,3.511,3.511,0,0,0,3.511-3.511V21.579a1.2,1.2,0,0,1,.786-1.112l3.859-1.276a3.536,3.536,0,0,0,2.376-3.323V3.511A3.511,3.511,0,0,0,29.255,0Z" transform="translate(0 0)" fill="#eceff1"/>
  </g>
</svg>
