<svg xmlns="http://www.w3.org/2000/svg" width="60.179" height="56.17" viewBox="0 0 60.179 56.17">
  <g id="coffee-cup" transform="translate(0 -15.986)">
    <path id="Path_374" data-name="Path 374" d="M326.391,228.075h-8.545a2.006,2.006,0,1,1,0-4.012h8.545a6.076,6.076,0,0,0,6.018-6.018,6.025,6.025,0,0,0-6.018-6.018h-8.024a2.006,2.006,0,0,1,0-4.012h8.024a10.041,10.041,0,0,1,10.03,10.03,10.082,10.082,0,0,1-10.03,10.03Z" transform="translate(-276.242 -167.954)" fill="#cfd8dc"/>
    <path id="Path_375" data-name="Path 375" d="M42.125,176.015H2.006A2.007,2.007,0,0,0,0,178.021v16.048a18.076,18.076,0,0,0,18.054,18.054h8.024a18.076,18.076,0,0,0,18.054-18.054V178.021A2.007,2.007,0,0,0,42.125,176.015Z" transform="translate(0 -139.966)" fill="#eceff1"/>
    <g id="Group_352" data-name="Group 352" transform="translate(3.001 15.986)">
      <path id="Path_376" data-name="Path 376" d="M250.961,32.048a2.006,2.006,0,0,1-1.332-3.506c.052-.06.943-1.119-.417-3.534-3.013-5.36.277-8.373.417-8.5a2.006,2.006,0,0,1,2.716,2.953c-.132.148-.967,1.212.365,3.583,3.017,5.36-.273,8.373-.417,8.5A2.01,2.01,0,0,1,250.961,32.048Z" transform="translate(-219.861 -15.997)" fill="#cfd8dc"/>
      <path id="Path_377" data-name="Path 377" d="M138.955,32.037a2.006,2.006,0,0,1-1.332-3.506c.048-.06.943-1.119-.417-3.534-3.013-5.36.273-8.373.417-8.5a2.006,2.006,0,0,1,2.716,2.953c-.132.148-.967,1.212.365,3.583,3.013,5.36-.273,8.373-.417,8.5A2.01,2.01,0,0,1,138.955,32.037Z" transform="translate(-121.897 -15.986)" fill="#cfd8dc"/>
      <path id="Path_378" data-name="Path 378" d="M26.955,32.048a2.006,2.006,0,0,1-1.332-3.506c.048-.06.943-1.119-.417-3.534-3.013-5.36.273-8.373.417-8.5a2.006,2.006,0,0,1,2.716,2.953c-.132.148-.967,1.212.365,3.583,3.013,5.36-.273,8.373-.417,8.5A2.01,2.01,0,0,1,26.955,32.048Z" transform="translate(-23.939 -15.997)" fill="#cfd8dc"/>
    </g>
  </g>
</svg>
