<svg xmlns="http://www.w3.org/2000/svg" xmlns:xlink="http://www.w3.org/1999/xlink" width="104.135" height="35" viewBox="0 0 104.135 35">
  <defs>
    <clipPath id="clip-path">
      <rect id="Rectangle_13" data-name="Rectangle 13" width="13" height="26" transform="translate(898 5872)" fill="#203bb1"/>
    </clipPath>
    <clipPath id="clip-path-2">
      <rect id="Rectangle_14" data-name="Rectangle 14" width="13" height="26" transform="translate(898 5872)" fill="#26dbda"/>
    </clipPath>
  </defs>
  <g id="logo" transform="translate(-628 -5808)">
    <g id="Group_35" data-name="Group 35">
      <g id="Mask_Group_2" data-name="Mask Group 2" transform="translate(-270 -64)" clip-path="url(#clip-path)">
        <circle id="Ellipse_5" data-name="Ellipse 5" cx="13" cy="13" r="13" transform="translate(898 5872)" fill="#203bb1"/>
      </g>
      <g id="Mask_Group_3" data-name="Mask Group 3" transform="translate(1554 11715) rotate(180)" clip-path="url(#clip-path-2)">
        <circle id="Ellipse_6" data-name="Ellipse 6" cx="13" cy="13" r="13" transform="translate(898 5872)" fill="#26dbda"/>
      </g>
    </g>
    <path id="Path_274" data-name="Path 274" d="M-36.747-5.566h3.891a2.889,2.889,0,0,0,.743,2.113,2.592,2.592,0,0,0,1.937.758,2.333,2.333,0,0,0,1.566-.537,1.777,1.777,0,0,0,.631-1.424,1.7,1.7,0,0,0-.2-.852,1.994,1.994,0,0,0-.549-.613,3.985,3.985,0,0,0-.83-.467q-.479-.2-1.029-.414-1.146-.432-2.193-.864A7.611,7.611,0,0,1-34.6-8.907a4.625,4.625,0,0,1-1.23-1.467,4.483,4.483,0,0,1-.459-2.133,4.13,4.13,0,0,1,.494-2.038,4.561,4.561,0,0,1,1.311-1.487,5.811,5.811,0,0,1,1.887-.9,8.267,8.267,0,0,1,2.233-.3,7.367,7.367,0,0,1,2.62.428,5.24,5.24,0,0,1,1.874,1.172,4.918,4.918,0,0,1,1.122,1.705,5.545,5.545,0,0,1,.376,2.039h-3.912a2.726,2.726,0,0,0-.538-1.784,1.884,1.884,0,0,0-1.543-.654,2.369,2.369,0,0,0-1.437.436,1.514,1.514,0,0,0-.6,1.307,1.565,1.565,0,0,0,.655,1.329,6.73,6.73,0,0,0,1.73.872q1.029.362,2.094.782a8.7,8.7,0,0,1,1.906,1.027,5.154,5.154,0,0,1,1.383,1.483,3.941,3.941,0,0,1,.541,2.113,5.452,5.452,0,0,1-.47,2.32,4.7,4.7,0,0,1-1.31,1.7,5.821,5.821,0,0,1-2,1.036,8.727,8.727,0,0,1-2.556.353,7.662,7.662,0,0,1-2.506-.4,5.74,5.74,0,0,1-2.009-1.166,5.358,5.358,0,0,1-1.33-1.881A6.4,6.4,0,0,1-36.747-5.566ZM-21.58,0V-11.566h3.668V0Zm6.785,0V-11.566h3.668v1.676a3.347,3.347,0,0,1,1.453-1.453,4.945,4.945,0,0,1,2.344-.516,4.916,4.916,0,0,1,1.945.352,3.194,3.194,0,0,1,1.3.973,3.457,3.457,0,0,1,.727,1.547,10.991,10.991,0,0,1,.176,2.121V0H-6.85V-5.93a4.046,4.046,0,0,0-.445-2.021A1.677,1.677,0,0,0-8.889-8.73a1.919,1.919,0,0,0-1.682.791,3.631,3.631,0,0,0-.557,2.127V0ZM-.943-5.789A7,7,0,0,1-.538-8.2,5.581,5.581,0,0,1,.615-10.119a5.474,5.474,0,0,1,1.793-1.271,5.574,5.574,0,0,1,2.3-.469,3.957,3.957,0,0,1,1.1.158,4.724,4.724,0,0,1,1.017.422,3.908,3.908,0,0,1,.83.621,3.2,3.2,0,0,1,.573.744v-1.652H11.9V0H8.232V-1.629a2.831,2.831,0,0,1-.573.756,3.819,3.819,0,0,1-.83.6,5.131,5.131,0,0,1-1.017.41,3.957,3.957,0,0,1-1.1.158,5.586,5.586,0,0,1-2.3-.469,5.417,5.417,0,0,1-1.8-1.277A5.644,5.644,0,0,1-.538-3.375,7,7,0,0,1-.943-5.789Zm3.668,0a3.223,3.223,0,0,0,.2,1.143,2.885,2.885,0,0,0,.561.938,2.747,2.747,0,0,0,.859.633,2.571,2.571,0,0,0,1.123.24A2.609,2.609,0,0,0,6.6-3.076a2.728,2.728,0,0,0,.865-.633,2.9,2.9,0,0,0,.561-.932,3.209,3.209,0,0,0,.2-1.148,3.082,3.082,0,0,0-.2-1.125,3.155,3.155,0,0,0-.561-.937A2.556,2.556,0,0,0,6.607-8.5,2.654,2.654,0,0,0,5.473-8.73,2.625,2.625,0,0,0,4.35-8.5a2.556,2.556,0,0,0-.859.645,3.155,3.155,0,0,0-.561.938A3.082,3.082,0,0,0,2.725-5.789ZM13.869-8.66v-2.906h8.1V-8.66H19.342v4.026a3.419,3.419,0,0,0,.117,1,1.281,1.281,0,0,0,.334.57,1.162,1.162,0,0,0,.5.274,2.5,2.5,0,0,0,.627.074q.34,0,.7-.018a5.19,5.19,0,0,0,.627-.064V0q-.41.07-1.025.128T19.8.188A11.01,11.01,0,0,1,18.425.1a3.2,3.2,0,0,1-1.34-.483,2.9,2.9,0,0,1-1.011-1.2,5.1,5.1,0,0,1-.4-2.223V-8.66Zm9.422,2.871A7,7,0,0,1,23.7-8.2a5.581,5.581,0,0,1,1.152-1.916,5.474,5.474,0,0,1,1.793-1.271,5.574,5.574,0,0,1,2.3-.469,3.957,3.957,0,0,1,1.1.158,4.724,4.724,0,0,1,1.017.422,3.908,3.908,0,0,1,.83.621,3.2,3.2,0,0,1,.573.744v-1.652h3.668V0H32.467V-1.629a2.831,2.831,0,0,1-.573.756,3.819,3.819,0,0,1-.83.6,5.131,5.131,0,0,1-1.017.41,3.957,3.957,0,0,1-1.1.158,5.586,5.586,0,0,1-2.3-.469,5.417,5.417,0,0,1-1.8-1.277A5.644,5.644,0,0,1,23.7-3.375,7,7,0,0,1,23.291-5.789Zm3.668,0a3.223,3.223,0,0,0,.2,1.143,2.885,2.885,0,0,0,.561.938,2.747,2.747,0,0,0,.859.633,2.571,2.571,0,0,0,1.123.24,2.609,2.609,0,0,0,1.128-.24,2.728,2.728,0,0,0,.865-.633,2.9,2.9,0,0,0,.561-.932,3.209,3.209,0,0,0,.2-1.148,3.082,3.082,0,0,0-.2-1.125,3.155,3.155,0,0,0-.561-.937,2.556,2.556,0,0,0-.859-.645,2.654,2.654,0,0,0-1.134-.234,2.625,2.625,0,0,0-1.123.234,2.556,2.556,0,0,0-.859.645,3.155,3.155,0,0,0-.561.938A3.082,3.082,0,0,0,26.959-5.789Z" transform="translate(696 5833.73)" fill="#1e0e62"/>
  </g>
</svg>
