<svg xmlns="http://www.w3.org/2000/svg" width="53.814" height="57.658" viewBox="0 0 53.814 57.658">
  <path id="user_2_" data-name="user (2)" d="M60.543,38.854,52.136,37.17a1.923,1.923,0,0,1-1.541-1.883v-1.93a22.2,22.2,0,0,0,1.611-2.868,16.659,16.659,0,0,1,1.307-2.322,12.42,12.42,0,0,0,3.9-6.154,5.753,5.753,0,0,0-.557-4.513A33.949,33.949,0,0,0,56.2,9.7c-.065-2.994-.615-4.686-1.995-6.192a5.961,5.961,0,0,0-3.567-1.5,6.185,6.185,0,0,1-1.3-.3A13.524,13.524,0,0,0,42.834,0C37.76.192,31.533,3.41,29.45,9.195c-.634,1.757-.573,4.64-.527,6.957L28.869,17.5a6.116,6.116,0,0,0-.484,4.509,12.376,12.376,0,0,0,3.89,6.154A16.937,16.937,0,0,1,33.6,30.5a23.324,23.324,0,0,0,1.622,2.864v1.926a1.922,1.922,0,0,1-1.545,1.883l-8.407,1.684A11.558,11.558,0,0,0,16,50.159v3.656a3.85,3.85,0,0,0,3.844,3.844H65.97a3.85,3.85,0,0,0,3.844-3.844V50.159A11.557,11.557,0,0,0,60.543,38.854Z" transform="translate(-16)" fill="#eceff1"/>
</svg>
