<svg width="879" height="721" viewBox="0 0 879 721" fill="none" xmlns="http://www.w3.org/2000/svg">
<g filter="url(#filter0_d)">
<path d="M150 53H903V521H150V53Z" fill="white"/>
</g>
<rect x="284" y="53" width="618.707" height="40.7426" fill="#F4F4F6"/>
<line x1="172.397" y1="146.603" x2="250.337" y2="146.603" stroke="#F4F4F6" stroke-width="4.79471" stroke-linecap="round" stroke-linejoin="round"/>
<line x1="172.397" y1="170.603" x2="250.337" y2="170.603" stroke="#F4F4F6" stroke-width="4.79471" stroke-linecap="round" stroke-linejoin="round"/>
<line x1="172.397" y1="194.603" x2="250.337" y2="194.603" stroke="#F4F4F6" stroke-width="4.79471" stroke-linecap="round" stroke-linejoin="round"/>
<line x1="315.397" y1="74.6026" x2="347.773" y2="74.6026" stroke="white" stroke-width="4.79471" stroke-linecap="round" stroke-linejoin="round"/>
<line x1="376.397" y1="74.6026" x2="408.773" y2="74.6026" stroke="white" stroke-width="4.79471" stroke-linecap="round" stroke-linejoin="round"/>
<line x1="437.397" y1="74.6026" x2="469.773" y2="74.6026" stroke="white" stroke-width="4.79471" stroke-linecap="round" stroke-linejoin="round"/>
<rect x="170" y="76" width="28.7771" height="28.7595" rx="4.79471" fill="#F4F4F6"/>
<line x1="283.401" y1="521" x2="283.401" y2="55" stroke="#F4F4F6" stroke-width="1.19868"/>
<g filter="url(#filter1_d)">
<path d="M150 23.1921C150 19.22 153.22 16 157.192 16H903V54H151.199C150.537 54 150 53.4633 150 52.8013V23.1921Z" fill="white"/>
</g>
<ellipse cx="169.597" cy="35.5949" rx="3.59713" ry="3.59494" fill="#FD615D"/>
<ellipse cx="188.597" cy="35.5949" rx="3.59713" ry="3.59494" fill="#FEBC40"/>
<ellipse cx="207.597" cy="35.5949" rx="3.59713" ry="3.59494" fill="#34C749"/>
<rect x="332.599" y="266.599" width="540.769" height="85.0798" rx="4.19537" stroke="#F4F4F6" stroke-width="1.19868"/>
<g filter="url(#filter2_d)">
<ellipse cx="333.384" cy="296.371" rx="20.3838" ry="20.3713" fill="white"/>
</g>
<line x1="402.795" y1="297.205" x2="507.115" y2="297.205" stroke="#F4F4F6" stroke-width="9.58943" stroke-linecap="round" stroke-linejoin="round"/>
<line x1="400.397" y1="318.603" x2="420.783" y2="318.603" stroke="#F4F4F6" stroke-width="4.79471" stroke-linecap="round" stroke-linejoin="round"/>
<line x1="435.397" y1="318.603" x2="455.783" y2="318.603" stroke="#F4F4F6" stroke-width="4.79471" stroke-linecap="round" stroke-linejoin="round"/>
<line x1="470.397" y1="318.603" x2="490.783" y2="318.603" stroke="#F4F4F6" stroke-width="4.79471" stroke-linecap="round" stroke-linejoin="round"/>
<rect x="678" y="283" width="52.758" height="52.7257" rx="7.19207" fill="#F4F4F6"/>
<rect x="740" y="283" width="52.758" height="52.7257" rx="7.19207" fill="#F4F4F6"/>
<rect x="802" y="283" width="52.758" height="52.7257" rx="7.19207" fill="#F4F4F6"/>
<rect x="332.599" y="362.599" width="540.769" height="85.0798" rx="4.19537" stroke="#F4F4F6" stroke-width="1.19868"/>
<g filter="url(#filter3_d)">
<ellipse cx="333.384" cy="392.371" rx="20.3838" ry="20.3713" fill="white"/>
</g>
<line x1="402.795" y1="393.205" x2="507.115" y2="393.205" stroke="#F4F4F6" stroke-width="9.58943" stroke-linecap="round" stroke-linejoin="round"/>
<line x1="400.397" y1="414.603" x2="420.783" y2="414.603" stroke="#F4F4F6" stroke-width="4.79471" stroke-linecap="round" stroke-linejoin="round"/>
<line x1="435.397" y1="414.603" x2="455.783" y2="414.603" stroke="#F4F4F6" stroke-width="4.79471" stroke-linecap="round" stroke-linejoin="round"/>
<line x1="470.397" y1="414.603" x2="490.783" y2="414.603" stroke="#F4F4F6" stroke-width="4.79471" stroke-linecap="round" stroke-linejoin="round"/>
<rect x="678" y="379" width="52.758" height="52.7257" rx="7.19207" fill="#F4F4F6"/>
<rect x="740" y="379" width="52.758" height="52.7257" rx="7.19207" fill="#F4F4F6"/>
<rect x="802" y="379" width="52.758" height="52.7257" rx="7.19207" fill="#F4F4F6"/>
<rect x="313.599" y="119.599" width="166.668" height="107.848" rx="4.19537" stroke="#F4F4F6" stroke-width="1.19868"/>
<rect x="510.599" y="119.599" width="166.668" height="107.848" rx="4.19537" stroke="#F4F4F6" stroke-width="1.19868"/>
<rect x="706.599" y="119.599" width="166.668" height="107.848" rx="4.19537" stroke="#F4F4F6" stroke-width="1.19868"/>
<ellipse cx="364.18" cy="170.165" rx="25.1799" ry="25.1646" fill="#F4F4F6"/>
<path d="M390.18 170.165C390.18 156.267 378.906 145 365 145V170.165L381.187 189.441C386.685 184.825 390.18 177.903 390.18 170.165Z" fill="#E8E9EE"/>
<line x1="536.401" y1="210" x2="536.401" y2="146.489" stroke="#F4F4F6" stroke-width="1.19868"/>
<line x1="575.401" y1="210" x2="575.401" y2="146.489" stroke="#F4F4F6" stroke-width="1.19868"/>
<line x1="613.401" y1="210" x2="613.401" y2="146.489" stroke="#F4F4F6" stroke-width="1.19868"/>
<line x1="651.401" y1="210" x2="651.401" y2="146.489" stroke="#F4F4F6" stroke-width="1.19868"/>
<path d="M529 204.94C532.597 194.155 552.981 174.982 572.965 174.982C592.949 174.982 595.747 189.362 616.93 188.164C638.113 186.965 657.298 143.826 660.895 145.025" stroke="#E8E9EE" stroke-width="2.39736" stroke-linecap="round" stroke-linejoin="round"/>
<line x1="726.202" y1="210.202" x2="726.202" y2="185.039" stroke="#E8E9EE" stroke-width="3.59604" stroke-linecap="round" stroke-linejoin="round"/>
<line x1="736.202" y1="210.202" x2="736.202" y2="161.072" stroke="#E8E9EE" stroke-width="3.59604" stroke-linecap="round" stroke-linejoin="round"/>
<line x1="764.202" y1="210.202" x2="764.202" y2="149.089" stroke="#E8E9EE" stroke-width="3.59604" stroke-linecap="round" stroke-linejoin="round"/>
<line x1="774.202" y1="210.202" x2="774.202" y2="143.098" stroke="#E8E9EE" stroke-width="3.59604" stroke-linecap="round" stroke-linejoin="round"/>
<line x1="803.202" y1="210.202" x2="803.202" y2="198.22" stroke="#E8E9EE" stroke-width="3.59604" stroke-linecap="round" stroke-linejoin="round"/>
<line x1="812.202" y1="210.202" x2="812.202" y2="183.84" stroke="#E8E9EE" stroke-width="3.59604" stroke-linecap="round" stroke-linejoin="round"/>
<line x1="841.202" y1="210.202" x2="841.202" y2="169.46" stroke="#E8E9EE" stroke-width="3.59604" stroke-linecap="round" stroke-linejoin="round"/>
<line x1="851.202" y1="210.202" x2="851.202" y2="159.874" stroke="#E8E9EE" stroke-width="3.59604" stroke-linecap="round" stroke-linejoin="round"/>
<defs>
<filter id="filter0_d" x="0" y="53" width="953" height="668" filterUnits="userSpaceOnUse" color-interpolation-filters="sRGB">
<feFlood flood-opacity="0" result="BackgroundImageFix"/>
<feColorMatrix in="SourceAlpha" type="matrix" values="0 0 0 0 0 0 0 0 0 0 0 0 0 0 0 0 0 0 127 0"/>
<feOffset dx="-50" dy="100"/>
<feGaussianBlur stdDeviation="50"/>
<feColorMatrix type="matrix" values="0 0 0 0 0.0381381 0 0 0 0 0.0633876 0 0 0 0 0.174672 0 0 0 0.07 0"/>
<feBlend mode="normal" in2="BackgroundImageFix" result="effect1_dropShadow"/>
<feBlend mode="normal" in="SourceGraphic" in2="effect1_dropShadow" result="shape"/>
</filter>
<filter id="filter1_d" x="130.821" y="0.417183" width="791.358" height="76.3577" filterUnits="userSpaceOnUse" color-interpolation-filters="sRGB">
<feFlood flood-opacity="0" result="BackgroundImageFix"/>
<feColorMatrix in="SourceAlpha" type="matrix" values="0 0 0 0 0 0 0 0 0 0 0 0 0 0 0 0 0 0 127 0"/>
<feOffset dy="3.59604"/>
<feGaussianBlur stdDeviation="9.58943"/>
<feColorMatrix type="matrix" values="0 0 0 0 0 0 0 0 0 0 0 0 0 0 0 0 0 0 0.04 0"/>
<feBlend mode="normal" in2="BackgroundImageFix" result="effect1_dropShadow"/>
<feBlend mode="normal" in="SourceGraphic" in2="effect1_dropShadow" result="shape"/>
</filter>
<filter id="filter2_d" x="289.026" y="260.417" width="88.7146" height="88.6898" filterUnits="userSpaceOnUse" color-interpolation-filters="sRGB">
<feFlood flood-opacity="0" result="BackgroundImageFix"/>
<feColorMatrix in="SourceAlpha" type="matrix" values="0 0 0 0 0 0 0 0 0 0 0 0 0 0 0 0 0 0 127 0"/>
<feOffset dy="8.39075"/>
<feGaussianBlur stdDeviation="11.9868"/>
<feColorMatrix type="matrix" values="0 0 0 0 0 0 0 0 0 0 0 0 0 0 0 0 0 0 0.06 0"/>
<feBlend mode="normal" in2="BackgroundImageFix" result="effect1_dropShadow"/>
<feBlend mode="normal" in="SourceGraphic" in2="effect1_dropShadow" result="shape"/>
</filter>
<filter id="filter3_d" x="289.026" y="356.417" width="88.7146" height="88.6898" filterUnits="userSpaceOnUse" color-interpolation-filters="sRGB">
<feFlood flood-opacity="0" result="BackgroundImageFix"/>
<feColorMatrix in="SourceAlpha" type="matrix" values="0 0 0 0 0 0 0 0 0 0 0 0 0 0 0 0 0 0 127 0"/>
<feOffset dy="8.39075"/>
<feGaussianBlur stdDeviation="11.9868"/>
<feColorMatrix type="matrix" values="0 0 0 0 0 0 0 0 0 0 0 0 0 0 0 0 0 0 0.06 0"/>
<feBlend mode="normal" in2="BackgroundImageFix" result="effect1_dropShadow"/>
<feBlend mode="normal" in="SourceGraphic" in2="effect1_dropShadow" result="shape"/>
</filter>
</defs>
</svg>
