<svg xmlns="http://www.w3.org/2000/svg" width="1600" height="956" fill="none"><rect x="136.727" y="378.734" width="83.625" height="83.39" rx="41.695" transform="rotate(-15 136.727 378.734)" fill="#0057FF"></rect><path transform="rotate(-15 311.207 331.982)" fill="url(#paint0_linear)" d="M311.207 331.982h226.406v83.39H311.207z"></path><path transform="rotate(-15 976.271 153.778)" fill="url(#paint1_linear)" d="M976.271 153.778h310.753v83.39H976.271z"></path><path transform="scale(-1 1) rotate(15 -1619.638 -5998.564)" fill="url(#paint2_linear)" d="M0 0h340.509v83.39H0z"></path><path fill="#2F419B" d="M680.812 463.164l-328.906 88.13 21.582 80.549 328.907-88.13z"></path><path opacity=".2" stroke="#fff" d="M212.128 589.265l-79.582 21.324 21.324 79.582 79.582-21.324z"></path><path fill="#2F419B" d="M1084.17 355.085l-80.549 21.583 21.583 80.548 80.549-21.582z"></path><path transform="scale(1 -1) rotate(15 3641.825 -383.914)" fill="url(#paint3_linear)" d="M0 0h418.746v84.132H0z"></path><path fill="#0057FF" d="M950.97 707.324l310.521-83.204-21.583-80.548-310.52 83.203z"></path><path fill="#5E73E5" d="M1494.67 561.64l80.549-21.583-21.583-80.548-80.549 21.582z"></path><path fill="#0057FF" d="M586.876 804.883l80.549-21.583-21.583-80.548-80.549 21.582z"></path><circle opacity=".2" r="41.195" transform="scale(1 -1) rotate(15 2784.567 4899.865)" stroke="#fff"></circle><defs><linearGradient id="paint0_linear" x1="311.412" y1="372.123" x2="546.254" y2="365.359" gradientUnits="userSpaceOnUse"><stop stop-color="#fff" stop-opacity=".13"></stop><stop offset="1" stop-color="#fff" stop-opacity="0"></stop></linearGradient><linearGradient id="paint1_linear" x1="976.552" y1="193.919" x2="1298.65" y2="181.186" gradientUnits="userSpaceOnUse"><stop stop-color="#fff" stop-opacity=".13"></stop><stop offset="1" stop-color="#fff" stop-opacity="0"></stop></linearGradient><linearGradient id="paint2_linear" x1=".308" y1="40.141" x2="353.135" y2="24.857" gradientUnits="userSpaceOnUse"><stop stop-color="#fff" stop-opacity=".13"></stop><stop offset="1" stop-color="#fff" stop-opacity="0"></stop></linearGradient><linearGradient id="paint3_linear" x1="424.399" y1="37.545" x2=".23" y2="46.257" gradientUnits="userSpaceOnUse"><stop stop-color="#F4F4F4"></stop><stop offset="1" stop-color="#F4F4F4" stop-opacity="0"></stop></linearGradient></defs></svg>