<svg width="915" height="716" viewBox="0 0 915 716" fill="none" xmlns="http://www.w3.org/2000/svg">
<g style="mix-blend-mode:multiply">
<path d="M817.114 219.209C727.701 50.3709 578.354 19.6478 472.486 19C399.898 19 43.0323 57.2188 43.0323 310.731C43.0323 418.077 91.3313 442.97 66.811 517.464C58.4367 542.974 49.9852 571.631 41.4563 603.434C33.2984 636.516 39.7877 658.957 58.7457 661.41C78.8626 663.908 107.416 655.903 137.544 644.475C162.158 634.99 190.154 620.6 216.343 608.755C302.188 662.15 411.44 678.159 543.868 644.058C711.431 597.372 924.142 430.477 817.114 219.209Z" fill="#75E8F0"/>
</g>
<g filter="url(#filter0_d)">
<rect x="123" y="158" width="540" height="350" rx="8" fill="white"/>
</g>
<path opacity="0.5" d="M180 283H271" stroke="#D6D6DE" stroke-width="10" stroke-linecap="round" stroke-linejoin="round"/>
<path opacity="0.5" d="M180 305H263" stroke="#D6D6DE" stroke-width="10" stroke-linecap="round" stroke-linejoin="round"/>
<path opacity="0.5" d="M337 317H428" stroke="#D6D6DE" stroke-width="10" stroke-linecap="round" stroke-linejoin="round"/>
<path opacity="0.5" d="M337 339H414" stroke="#D6D6DE" stroke-width="10" stroke-linecap="round" stroke-linejoin="round"/>
<g filter="url(#filter1_d)">
<rect x="171" y="98" width="108" height="145" rx="8" fill="white"/>
</g>
<circle cx="225.5" cy="157.5" r="27.5" fill="#EBECEF"/>
<mask id="mask0" mask-type="alpha" maskUnits="userSpaceOnUse" x="198" y="130" width="55" height="55">
<circle cx="225.5" cy="157.5" r="27.5" fill="#FFB0A3"/>
</mask>
<g mask="url(#mask0)">
<circle cx="225.5" cy="148.5" r="9.5" fill="#D6D9DE"/>
<circle cx="226" cy="182" r="19" fill="#D6D9DE"/>
</g>
<line x1="203" y1="211" x2="247" y2="211" stroke="#E0E2E6" stroke-width="10" stroke-linecap="round" stroke-linejoin="round"/>
<g filter="url(#filter2_d)">
<rect x="327" y="126" width="108" height="145" rx="8" fill="white"/>
</g>
<circle cx="381.5" cy="185.5" r="27.5" fill="#FFB0A3"/>
<line x1="359" y1="239" x2="403" y2="239" stroke="#E0E2E6" stroke-width="10" stroke-linecap="round" stroke-linejoin="round"/>
<rect x="483" y="206" width="132" height="183" rx="8" fill="#3639A4"/>
<circle cx="549.5" cy="387.5" r="26.5" fill="#D6D6DE"/>
<path d="M547.888 390.266C549.966 392.542 552.372 394.718 553.323 393.676C554.686 392.184 555.525 390.885 558.528 393.528C561.53 396.172 559.224 397.933 557.905 399.379C556.382 401.046 550.707 399.466 545.097 393.323C539.488 387.178 538.044 380.963 539.568 379.294C540.888 377.849 542.496 375.324 544.909 378.613C547.322 381.9 546.136 382.82 544.774 384.312C543.823 385.354 545.809 387.989 547.888 390.266Z" fill="white"/>
<path d="M527.167 246.508C527.167 247.609 527.038 248.582 526.78 249.426C526.53 250.262 526.167 250.965 525.69 251.535C525.213 252.098 524.631 252.523 523.944 252.812C523.256 253.102 522.483 253.246 521.624 253.246C520.772 253.246 520.002 253.102 519.315 252.812C518.627 252.523 518.042 252.098 517.557 251.535C517.081 250.965 516.71 250.262 516.444 249.426C516.186 248.582 516.057 247.609 516.057 246.508V242.43C516.057 241.328 516.186 240.359 516.444 239.523C516.702 238.68 517.069 237.977 517.545 237.414C518.03 236.844 518.612 236.414 519.292 236.125C519.979 235.836 520.749 235.691 521.6 235.691C522.46 235.691 523.233 235.836 523.92 236.125C524.608 236.414 525.19 236.844 525.667 237.414C526.151 237.977 526.522 238.68 526.78 239.523C527.038 240.359 527.167 241.328 527.167 242.43V246.508ZM519.338 245.102L523.885 241.715C523.862 240.566 523.663 239.715 523.288 239.16C522.913 238.605 522.35 238.328 521.6 238.328C520.842 238.328 520.276 238.621 519.901 239.207C519.526 239.793 519.338 240.695 519.338 241.914V245.102ZM523.885 243.93L519.338 247.305C519.377 248.43 519.585 249.266 519.96 249.812C520.335 250.352 520.889 250.621 521.624 250.621C522.389 250.621 522.956 250.324 523.323 249.73C523.698 249.137 523.885 248.227 523.885 247V243.93ZM540.907 253H529.271V250.773L534.79 244.844C535.22 244.375 535.583 243.949 535.88 243.566C536.177 243.184 536.415 242.836 536.595 242.523C536.782 242.203 536.915 241.906 536.993 241.633C537.079 241.359 537.122 241.094 537.122 240.836C537.122 240.453 537.068 240.113 536.958 239.816C536.849 239.52 536.693 239.27 536.49 239.066C536.294 238.855 536.056 238.695 535.775 238.586C535.501 238.477 535.197 238.422 534.861 238.422C533.962 238.422 533.29 238.672 532.845 239.172C532.407 239.672 532.189 240.371 532.189 241.27H528.919C528.919 240.512 529.064 239.797 529.353 239.125C529.642 238.445 530.048 237.852 530.572 237.344C531.103 236.836 531.74 236.438 532.482 236.148C533.232 235.852 534.06 235.703 534.966 235.703C535.833 235.703 536.599 235.824 537.263 236.066C537.935 236.309 538.493 236.648 538.939 237.086C539.392 237.523 539.736 238.051 539.97 238.668C540.204 239.277 540.322 239.953 540.322 240.695C540.322 241.258 540.232 241.797 540.052 242.312C539.88 242.82 539.63 243.324 539.302 243.824C538.982 244.324 538.595 244.836 538.142 245.359C537.689 245.875 537.185 246.418 536.63 246.988L533.419 250.387H540.907V253ZM546.902 251.113C546.902 250.809 546.953 250.527 547.055 250.27C547.156 250.004 547.305 249.777 547.5 249.59C547.695 249.395 547.934 249.242 548.215 249.133C548.496 249.016 548.812 248.957 549.164 248.957C549.516 248.957 549.832 249.016 550.113 249.133C550.395 249.242 550.629 249.395 550.816 249.59C551.012 249.777 551.16 250.004 551.262 250.27C551.371 250.527 551.426 250.809 551.426 251.113C551.426 251.41 551.371 251.688 551.262 251.945C551.16 252.203 551.012 252.43 550.816 252.625C550.629 252.812 550.395 252.961 550.113 253.07C549.832 253.18 549.516 253.234 549.164 253.234C548.812 253.234 548.496 253.18 548.215 253.07C547.934 252.961 547.695 252.812 547.5 252.625C547.305 252.43 547.156 252.203 547.055 251.945C546.953 251.688 546.902 251.41 546.902 251.113ZM546.902 241.434C546.902 241.129 546.953 240.848 547.055 240.59C547.156 240.324 547.305 240.098 547.5 239.91C547.695 239.715 547.934 239.562 548.215 239.453C548.496 239.336 548.812 239.277 549.164 239.277C549.516 239.277 549.832 239.336 550.113 239.453C550.395 239.562 550.629 239.715 550.816 239.91C551.012 240.098 551.16 240.324 551.262 240.59C551.371 240.848 551.426 241.129 551.426 241.434C551.426 241.73 551.371 242.008 551.262 242.266C551.16 242.523 551.012 242.75 550.816 242.945C550.629 243.133 550.395 243.281 550.113 243.391C549.832 243.5 549.516 243.555 549.164 243.555C548.812 243.555 548.496 243.5 548.215 243.391C547.934 243.281 547.695 243.133 547.5 242.945C547.305 242.75 547.156 242.523 547.055 242.266C546.953 242.008 546.902 241.73 546.902 241.434ZM565.12 253H561.827V239.91L557.514 241.457V238.621L564.944 235.938H565.12V253ZM581.99 253H570.353V250.773L575.872 244.844C576.302 244.375 576.665 243.949 576.962 243.566C577.259 243.184 577.497 242.836 577.677 242.523C577.865 242.203 577.997 241.906 578.076 241.633C578.162 241.359 578.205 241.094 578.205 240.836C578.205 240.453 578.15 240.113 578.04 239.816C577.931 239.52 577.775 239.27 577.572 239.066C577.376 238.855 577.138 238.695 576.857 238.586C576.583 238.477 576.279 238.422 575.943 238.422C575.044 238.422 574.372 238.672 573.927 239.172C573.49 239.672 573.271 240.371 573.271 241.27H570.001C570.001 240.512 570.146 239.797 570.435 239.125C570.724 238.445 571.13 237.852 571.654 237.344C572.185 236.836 572.822 236.438 573.564 236.148C574.314 235.852 575.142 235.703 576.048 235.703C576.915 235.703 577.681 235.824 578.345 236.066C579.017 236.309 579.576 236.648 580.021 237.086C580.474 237.523 580.818 238.051 581.052 238.668C581.287 239.277 581.404 239.953 581.404 240.695C581.404 241.258 581.314 241.797 581.134 242.312C580.962 242.82 580.712 243.324 580.384 243.824C580.064 244.324 579.677 244.836 579.224 245.359C578.771 245.875 578.267 246.418 577.712 246.988L574.501 250.387H581.99V253Z" fill="white"/>
<circle cx="530" cy="292" r="13" fill="#75E8F0"/>
<circle cx="568" cy="292" r="13" fill="#75E8F0"/>
<circle cx="530" cy="330" r="13" fill="#75E8F0"/>
<circle cx="568" cy="330" r="13" fill="#75E8F0"/>
<g filter="url(#filter3_d)">
<rect x="583" y="265.872" width="154.055" height="190.272" rx="8" transform="rotate(-15 583 265.872)" fill="white"/>
</g>
<path fill-rule="evenodd" clip-rule="evenodd" d="M707.664 314.667C706.588 307.901 703.3 301.681 698.316 296.981L683.91 312.258C685.217 313.488 686.209 315.086 686.707 316.947C688.137 322.281 684.971 327.765 679.636 329.194C674.302 330.624 668.818 327.458 667.389 322.123C665.967 316.816 669.092 311.363 674.376 309.898L668.765 289.662C662.162 291.493 656.352 295.459 652.243 300.942C648.134 306.424 645.956 313.114 646.051 319.964C646.146 326.815 648.508 333.442 652.768 338.808C657.028 344.175 662.945 347.979 669.596 349.626C676.246 351.273 683.255 350.67 689.527 347.912C695.799 345.154 700.981 340.396 704.262 334.381C707.543 328.366 708.739 321.434 707.664 314.667Z" fill="#FFB0A3"/>
<circle cx="677.048" cy="319.535" r="5" transform="rotate(-15 677.048 319.535)" fill="#3639A4"/>
<path fill-rule="evenodd" clip-rule="evenodd" d="M687.111 279.484C681.99 278.196 676.626 278.237 671.525 279.604L678.492 305.606C679.827 305.744 681.123 306.074 682.344 306.574L700.785 286.964C696.939 283.347 692.232 280.772 687.111 279.484Z" fill="#3639A4"/>
<path fill-rule="evenodd" clip-rule="evenodd" d="M680.267 375.346L694.704 379.145L705.307 368.636C704.541 366.828 702.541 365.815 700.59 366.337L683.203 370.996C681.252 371.519 680.026 373.397 680.267 375.346ZM705.935 370.83L695.706 380.968L695.3 381.37L694.748 381.225L680.821 377.559L683.48 387.486C684.052 389.62 686.246 390.886 688.379 390.315L705.766 385.656C707.9 385.084 709.166 382.891 708.595 380.757L705.935 370.83Z" fill="#3639A4"/>
<path d="M528.948 502.108C527.586 502.447 513.344 496.6 506.393 493.634C493.059 505.074 468.434 528.884 480.009 534.307C491.584 539.73 505.542 540.804 511.075 540.662C516.181 540.804 533.289 538.968 560.865 530.494C588.441 522.021 615.194 503.803 625.123 495.753L659.168 469.061C664.274 468.214 682.573 459.316 688.957 453.809C694.063 449.403 700.447 436.438 703 430.506L680.446 435.591C682.148 433.896 683.947 431.446 685.309 421.278C686.671 411.11 683.283 411.697 680.446 412.262C680.446 412.262 679.549 416.349 678.5 420.007C676.874 425.677 667.5 434.262 667.5 434.262C654 445.262 648.103 458.469 646.827 459.316C645.805 459.994 625.407 470.615 615.336 475.84C602.285 480.077 572.865 488.889 559.588 490.245C542.991 491.94 530.65 501.684 528.948 502.108Z" fill="#FDD2C9"/>
<path d="M688.957 453.809C694.063 449.403 700.447 436.438 703 430.506L697 431.859C695 440.218 678.5 457.5 670 459.316C663.2 460.77 650.833 470.044 645.5 474.5L645.366 474.598C630.023 485.771 605.485 503.642 566 518C526.4 532.4 486.839 512.449 480.009 505C476.459 510.771 475.56 532.223 480.009 534.307C491.584 539.73 505.542 540.804 511.075 540.662C516.181 540.804 533.289 538.968 560.865 530.494C588.441 522.021 615.194 503.803 625.123 495.753L659.168 469.061C664.274 468.214 682.573 459.316 688.957 453.809Z" fill="#F3B7AB"/>
<g filter="url(#filter4_d)">
<rect x="73.0029" y="254.29" width="244.087" height="155.848" rx="8" transform="rotate(19 73.0029 254.29)" fill="white"/>
</g>
<line x1="99.7635" y1="303.074" x2="71.7647" y2="384.389" stroke="#E0E2E6"/>
<line x1="130.02" y1="313.492" x2="102.021" y2="394.807" stroke="#E0E2E6"/>
<line x1="160.277" y1="323.91" x2="132.278" y2="405.225" stroke="#E0E2E6"/>
<line x1="190.533" y1="334.328" x2="162.534" y2="415.643" stroke="#E0E2E6"/>
<line x1="220.79" y1="344.747" x2="192.791" y2="426.061" stroke="#E0E2E6"/>
<line x1="251.046" y1="355.165" x2="223.048" y2="436.479" stroke="#E0E2E6"/>
<line x1="89.6484" y1="318.628" x2="152.053" y2="340.116" stroke="#75E8F0" stroke-width="16" stroke-linecap="round" stroke-linejoin="round"/>
<path d="M151.803 365.413L244.464 397.318" stroke="#3639A4" stroke-width="16" stroke-linecap="round" stroke-linejoin="round"/>
<path d="M94.1714 373.067L165.085 397.484" stroke="#D6D6DE" stroke-width="16" stroke-linecap="round" stroke-linejoin="round"/>
<path d="M291.602 518.676C297.241 512.93 304.802 508.039 308.995 505.769L326 544.059C326 544.059 314.519 554.539 304.319 555.919C295.5 557.113 292.307 556.146 281.787 552.927C267.333 548.504 244.377 525.129 231.623 512.653C218.87 500.176 201.014 473.503 197.614 471.352C194.213 469.201 186.56 469.201 172.957 467.049C162.074 465.329 153.259 452.565 150 445.969C158.361 448.837 174.147 454.315 172.106 453.282C170.066 452.25 166.438 441.953 165.729 436.934C164.596 436.074 161.563 433.148 158.503 428.33C156.122 423.167 160.628 422.737 164.029 424.028L172.957 433.062C176.641 434.209 185.54 437.623 191.662 442.097C197.784 446.571 206.966 459.162 210.367 464.899C222.129 472.499 249.563 489.679 265.208 497.595C280.852 505.511 289.618 515.234 291.602 518.676Z" fill="#FDD2C9"/>
<path d="M172.957 467.049C162.074 465.329 153.259 452.565 150 445.969C159.167 452.996 170.5 466.469 197.614 465.5C209.606 465.071 244 537.5 293.5 537.5C313.599 537.5 314.952 528.02 319 525.5L326 541.059C326 541.059 314.519 554.539 304.319 555.919C295.5 557.113 292.307 556.146 281.787 552.927C267.333 548.504 244.377 525.129 231.623 512.653C218.87 500.176 201.014 473.503 197.614 471.352C194.213 469.201 186.56 469.201 172.957 467.049Z" fill="#F3B7AB"/>
<path d="M417 469.71L413 457C444.56 442.348 434.5 434.5 431.5 415C444.5 408 423.552 392.929 422.615 392.392L399.187 386.412L383 396.237L388.964 469.71C397.483 468.002 412.172 469.141 417 469.71Z" fill="#FFE4DF"/>
<path d="M399.638 416C397.563 416.309 396.627 420.516 402 422" stroke="#F3B7AB" stroke-width="2" stroke-linecap="round" stroke-linejoin="round"/>
<path d="M417 402.5C419.667 402.167 421.9 400.8 423.5 398" stroke="#181C2F" stroke-width="3"/>
<path d="M413 457C413 457 411.144 443.164 411 438.412C415.151 443.25 423.896 447.492 427.5 448.5C421.5 453.5 413 457 413 457Z" fill="#FFC6BB"/>
<path d="M386.55 366.5C355.14 382.786 347.002 392.795 346.86 395.764C339.69 414.424 354.969 424.745 363.504 427.572C369.195 429.41 380.575 435.376 380.575 444.537C380.575 453.698 385.697 456.271 388.257 456.412C391.245 456.412 398.585 454.631 404.048 447.506C409.511 440.38 407.462 429.551 405.755 425.028C403.365 428.42 399.923 427.572 398.5 426.724C386.124 416.969 390.391 411.456 397.22 411.456C398.358 410.325 399.951 406.112 397.22 400.005C406.609 402.974 418.59 395.663 423 392.412C426.272 386.757 430.679 376.848 419.412 384.313C434.349 353.776 422.4 333.843 408.316 333.419C394.232 332.995 396.793 352.08 386.55 366.5Z" fill="#73483F"/>
<path d="M327.457 566.736C299.358 553.977 295.242 518.257 299.358 511.451C309.008 503.795 338.101 486.442 373.863 481.679C379.256 479.554 398.046 475.559 430.062 476.574C431.339 476.574 467.102 475.723 506.696 493.162C510.528 497.982 517.936 518.079 503.29 536.113C499.317 540.933 483.11 547.086 480.726 550.149C478.342 553.211 464 650.5 455 660C455 660 404 665.5 350 657.5L327.457 566.736Z" fill="#3639A4"/>
<path d="M344.529 524.115C348.529 506.515 396.529 501.115 403.529 502.115C344.529 524.115 365.196 620.448 370.529 652.115C360.196 616.781 340.529 541.715 344.529 524.115Z" fill="#3F42B3"/>
<path d="M382.347 470.898C377.583 473.214 374 479.253 374 482.412C379.978 480.011 399.731 475.847 426.728 477.131C427.663 477.176 425.885 473.938 425.885 472.422C402.882 461.81 388.585 467.865 382.347 470.898Z" fill="#2C2F94"/>
<path d="M402.333 532.479V529.727H410.235V564.434H402.333V561.733C400.915 562.936 399.312 563.881 397.592 564.526C393.776 565.897 389.611 565.769 385.878 564.166C383.885 563.272 382.09 561.96 380.604 560.311C379.093 558.588 377.919 556.575 377.147 554.384C375.618 549.706 375.618 544.631 377.147 539.953C377.915 537.775 379.09 535.777 380.604 534.077C382.055 532.377 383.843 531.024 385.843 530.113C387.842 529.202 390.008 528.754 392.19 528.8C394.02 528.791 395.837 529.112 397.563 529.748C399.289 530.371 400.902 531.295 402.333 532.479ZM393.246 537.087C392.05 537.077 390.864 537.319 389.76 537.798C388.635 538.291 387.625 539.029 386.797 539.963C385.938 540.889 385.266 541.987 384.821 543.189C383.978 545.734 383.978 548.499 384.821 551.044C385.267 552.246 385.939 553.343 386.797 554.27C387.625 555.204 388.635 555.942 389.76 556.435C390.864 556.914 392.05 557.156 393.246 557.146C394.439 557.171 395.623 556.927 396.718 556.43C397.812 555.934 398.791 555.197 399.587 554.27C400.438 553.337 401.109 552.242 401.563 551.044C402.448 548.507 402.448 545.726 401.563 543.189C401.11 541.991 400.439 540.895 399.587 539.963C398.791 539.036 397.812 538.299 396.718 537.803C395.623 537.306 394.439 537.062 393.246 537.087V537.087Z" fill="white"/>
<path d="M416.536 581.462L413.761 578.566L410.985 575.669C414.526 571.987 417.335 567.612 419.251 562.794C421.168 557.977 422.155 552.812 422.155 547.596C422.155 542.379 421.168 537.214 419.251 532.397C417.335 527.579 414.526 523.204 410.985 519.522L413.761 516.626L416.536 513.729C420.806 518.17 424.193 523.446 426.505 529.256C428.817 535.066 430.007 541.295 430.007 547.585C430.007 553.876 428.817 560.105 426.505 565.915C424.193 571.725 420.806 577.001 416.536 581.442V581.462Z" fill="#75E8F0"/>
<defs>
<filter id="filter0_d" x="23" y="114" width="740" height="550" filterUnits="userSpaceOnUse" color-interpolation-filters="sRGB">
<feFlood flood-opacity="0" result="BackgroundImageFix"/>
<feColorMatrix in="SourceAlpha" type="matrix" values="0 0 0 0 0 0 0 0 0 0 0 0 0 0 0 0 0 0 127 0"/>
<feOffset dy="56"/>
<feGaussianBlur stdDeviation="50"/>
<feColorMatrix type="matrix" values="0 0 0 0 0.12549 0 0 0 0 0.12549 0 0 0 0 0.12549 0 0 0 0.07 0"/>
<feBlend mode="normal" in2="BackgroundImageFix" result="effect1_dropShadow"/>
<feBlend mode="normal" in="SourceGraphic" in2="effect1_dropShadow" result="shape"/>
</filter>
<filter id="filter1_d" x="141" y="68" width="208" height="245" filterUnits="userSpaceOnUse" color-interpolation-filters="sRGB">
<feFlood flood-opacity="0" result="BackgroundImageFix"/>
<feColorMatrix in="SourceAlpha" type="matrix" values="0 0 0 0 0 0 0 0 0 0 0 0 0 0 0 0 0 0 127 0"/>
<feOffset dx="20" dy="20"/>
<feGaussianBlur stdDeviation="25"/>
<feColorMatrix type="matrix" values="0 0 0 0 0 0 0 0 0 0 0 0 0 0 0 0 0 0 0.07 0"/>
<feBlend mode="normal" in2="BackgroundImageFix" result="effect1_dropShadow"/>
<feBlend mode="normal" in="SourceGraphic" in2="effect1_dropShadow" result="shape"/>
</filter>
<filter id="filter2_d" x="297" y="96" width="208" height="245" filterUnits="userSpaceOnUse" color-interpolation-filters="sRGB">
<feFlood flood-opacity="0" result="BackgroundImageFix"/>
<feColorMatrix in="SourceAlpha" type="matrix" values="0 0 0 0 0 0 0 0 0 0 0 0 0 0 0 0 0 0 127 0"/>
<feOffset dx="20" dy="20"/>
<feGaussianBlur stdDeviation="25"/>
<feColorMatrix type="matrix" values="0 0 0 0 0 0 0 0 0 0 0 0 0 0 0 0 0 0 0.07 0"/>
<feBlend mode="normal" in2="BackgroundImageFix" result="effect1_dropShadow"/>
<feBlend mode="normal" in="SourceGraphic" in2="effect1_dropShadow" result="shape"/>
</filter>
<filter id="filter3_d" x="504.796" y="207.796" width="294.46" height="320.069" filterUnits="userSpaceOnUse" color-interpolation-filters="sRGB">
<feFlood flood-opacity="0" result="BackgroundImageFix"/>
<feColorMatrix in="SourceAlpha" type="matrix" values="0 0 0 0 0 0 0 0 0 0 0 0 0 0 0 0 0 0 127 0"/>
<feOffset dx="-30" dy="30"/>
<feGaussianBlur stdDeviation="25"/>
<feColorMatrix type="matrix" values="0 0 0 0 0 0 0 0 0 0 0 0 0 0 0 0 0 0 0.07 0"/>
<feBlend mode="normal" in2="BackgroundImageFix" result="effect1_dropShadow"/>
<feBlend mode="normal" in="SourceGraphic" in2="effect1_dropShadow" result="shape"/>
</filter>
<filter id="filter4_d" x="4.43018" y="236.457" width="377.195" height="322.491" filterUnits="userSpaceOnUse" color-interpolation-filters="sRGB">
<feFlood flood-opacity="0" result="BackgroundImageFix"/>
<feColorMatrix in="SourceAlpha" type="matrix" values="0 0 0 0 0 0 0 0 0 0 0 0 0 0 0 0 0 0 127 0"/>
<feOffset dx="30" dy="30"/>
<feGaussianBlur stdDeviation="25"/>
<feColorMatrix type="matrix" values="0 0 0 0 0 0 0 0 0 0 0 0 0 0 0 0 0 0 0.07 0"/>
<feBlend mode="normal" in2="BackgroundImageFix" result="effect1_dropShadow"/>
<feBlend mode="normal" in="SourceGraphic" in2="effect1_dropShadow" result="shape"/>
</filter>
</defs>
</svg>
