<svg xmlns="http://www.w3.org/2000/svg" width="62" height="71.988" viewBox="0 0 62 71.988">
  <g id="icon" transform="translate(-1253.785 -3941.547)">
    <path id="Path_16479" data-name="Path 16479" d="M707.664,314.667a31,31,0,0,0-9.348-17.686L683.91,312.258a10,10,0,1,1-9.534-2.36l-5.611-20.236a31,31,0,1,0,38.9,25.005Z" transform="translate(607.737 3663)" fill="#1f3bb3" fill-rule="evenodd"/>
    <path id="Path_16480" data-name="Path 16480" d="M687.111,279.484a31,31,0,0,0-15.586.12l6.967,26a13.95,13.95,0,0,1,3.852.968l18.441-19.61A31,31,0,0,0,687.111,279.484Z" transform="translate(607.737 3663)" fill="#35a1ff" fill-rule="evenodd"/>
  </g>
</svg>
