<svg width="589" height="176" viewBox="0 0 589 176" fill="none" xmlns="http://www.w3.org/2000/svg">
<path d="M61.4102 34.6523C46.2734 34.6523 34.6523 42.2695 28.9883 54.5742H28.4023V36.3125H0.277344V175.18H28.793V123.422H29.3789C34.9453 135.238 46.6641 142.66 61.8984 142.66C88.0703 142.66 104.281 122.348 104.281 88.6562C104.281 54.8672 87.9727 34.6523 61.4102 34.6523ZM51.8398 119.711C37.875 119.711 28.6953 107.602 28.6953 88.6562C28.6953 69.9062 37.875 57.5039 51.8398 57.5039C66.0977 57.5039 75.082 69.7109 75.082 88.6562C75.082 107.699 66.0977 119.711 51.8398 119.711ZM189.363 108.969C186.727 116.977 178.719 122.152 168.27 122.152C153.719 122.152 144.246 111.898 144.246 96.957V95.1992H216.414V86.5078C216.414 54.6719 197.176 34.0664 166.707 34.0664C135.75 34.0664 116.219 55.7461 116.219 89.1445C116.219 122.641 135.555 143.246 167.781 143.246C193.66 143.246 212.41 129.477 215.535 108.969H189.363ZM167 55.1602C179.695 55.1602 188.387 64.3398 188.973 77.7188H144.539C145.516 64.6328 154.5 55.1602 167 55.1602ZM384.137 34.6523C369 34.6523 357.379 42.2695 351.715 54.5742H351.129V36.3125H323.004V175.18H351.52V123.422H352.105C357.672 135.238 369.391 142.66 384.625 142.66C410.797 142.66 427.008 122.348 427.008 88.6562C427.008 54.8672 410.699 34.6523 384.137 34.6523ZM374.566 119.711C360.602 119.711 351.422 107.602 351.422 88.6562C351.422 69.9062 360.602 57.5039 374.566 57.5039C388.824 57.5039 397.809 69.7109 397.809 88.6562C397.809 107.699 388.824 119.711 374.566 119.711ZM443.438 141H471.953V0.0820312H443.438V141ZM561.527 108.969C558.891 116.977 550.883 122.152 540.434 122.152C525.883 122.152 516.41 111.898 516.41 96.957V95.1992H588.578V86.5078C588.578 54.6719 569.34 34.0664 538.871 34.0664C507.914 34.0664 488.383 55.7461 488.383 89.1445C488.383 122.641 507.719 143.246 539.945 143.246C565.824 143.246 584.574 129.477 587.699 108.969H561.527ZM539.164 55.1602C551.859 55.1602 560.551 64.3398 561.137 77.7188H516.703C517.68 64.6328 526.664 55.1602 539.164 55.1602Z" fill="#14142B"/>
<path d="M267.805 117.562C285.285 117.562 299.641 103.109 299.641 85.7266C299.641 68.2461 285.285 53.8906 267.805 53.8906C250.422 53.8906 235.969 68.2461 235.969 85.7266C235.969 103.109 250.422 117.562 267.805 117.562Z" fill="#609992"/>
</svg>
